<svg width="43" height="43" viewBox="0 0 43 43" fill="none" xmlns="http://www.w3.org/2000/svg">
<path d="M28.4444 37.1804V33.7082C28.4444 31.8664 27.7128 30.1001 26.4105 28.7977C25.1081 27.4954 23.3418 26.7638 21.5 26.7638H11.0833C9.24155 26.7638 7.4752 27.4954 6.17287 28.7977C4.87053 30.1001 4.13889 31.8664 4.13889 33.7082V37.1804M33.6528 14.611V25.0276M38.8611 19.8193H28.4444M23.2361 12.8749C23.2361 16.7102 20.127 19.8193 16.2917 19.8193C12.4564 19.8193 9.34722 16.7102 9.34722 12.8749C9.34722 9.03955 12.4564 5.93042 16.2917 5.93042C20.127 5.93042 23.2361 9.03955 23.2361 12.8749Z" stroke="white" stroke-width="2.25694" stroke-linecap="round" stroke-linejoin="round"/>
</svg>
