<svg width="24" height="24" viewBox="0 0 24 24" fill="none" xmlns="http://www.w3.org/2000/svg">
<g clip-path="url(#clip0_7915_1661)">
<path d="M10.2786 11.4396H2.99957M13.1972 6.63965H2.99957M14.0271 16.2396H2.99957M17.3996 21.0396H2.99957" stroke="white" stroke-width="1.5" stroke-linecap="round" stroke-linejoin="round"/>
<path d="M20.4363 15.5518C20.7814 15.5518 21.0613 15.8316 21.0613 16.1768V17.5068H22.5359L22.6619 17.5195C22.9468 17.5777 23.1609 17.8297 23.1609 18.1318C23.1607 18.4339 22.9468 18.686 22.6619 18.7441L22.5359 18.7568H21.0613V20.0869C21.0611 20.4319 20.7813 20.7119 20.4363 20.7119C20.0913 20.7118 19.8115 20.4319 19.8113 20.0869V18.7568H18.3367C17.9916 18.7568 17.7118 18.4769 17.7117 18.1318C17.7117 17.7867 17.9915 17.5068 18.3367 17.5068H19.8113V16.1768C19.8113 15.8317 20.0912 15.5519 20.4363 15.5518ZM17.4363 6.55859C17.6751 6.55859 17.894 6.69453 17.9988 6.90918L19.2068 9.38672C19.6166 9.56017 20.0264 9.73378 20.4363 9.90723C20.9175 10.1109 21.3985 10.3149 21.8796 10.5186C22.1108 10.6164 22.2615 10.8427 22.2615 11.0938C22.2613 11.3446 22.1107 11.5712 21.8796 11.6689L19.2068 12.7998L17.9988 15.2783C17.8939 15.4927 17.675 15.6289 17.4363 15.6289C17.2276 15.6287 17.0348 15.5241 16.9197 15.3545L16.8748 15.2783L15.6648 12.7998L12.9939 11.6689C12.7628 11.5712 12.6122 11.3446 12.6121 11.0938C12.6121 10.8428 12.7628 10.6165 12.9939 10.5186L15.6648 9.38672L16.8748 6.90918L16.9197 6.83301C17.0348 6.66323 17.2274 6.55878 17.4363 6.55859ZM16.6863 10.1455C16.6201 10.2809 16.5067 10.3885 16.3679 10.4473L14.8396 11.0938L16.3679 11.7402L16.4666 11.793C16.56 11.8542 16.6366 11.9394 16.6863 12.041L17.4363 13.5781L18.1873 12.041L18.2458 11.9453C18.312 11.8554 18.4016 11.7843 18.5056 11.7402L20.032 11.0938C20.0043 11.082 19.9766 11.0703 19.949 11.0586C19.4678 10.855 18.9868 10.6509 18.5056 10.4473C18.3668 10.3885 18.2534 10.2809 18.1873 10.1455L17.4363 8.6084L16.6863 10.1455Z" fill="#2DFF69"/>
</g>
<defs>
<clipPath id="clip0_7915_1661">
<rect width="24" height="24" fill="white"/>
</clipPath>
</defs>
</svg>
