<svg width="28" height="28" viewBox="0 0 28 28" fill="none" xmlns="http://www.w3.org/2000/svg">
<g clip-path="url(#clip0_7710_82944)">
<path d="M18.8641 20.5216C19.3035 20.0823 19.3035 19.37 18.8642 18.9306C18.4248 18.4913 17.7125 18.4913 17.2732 18.9306L18.8641 20.5216ZM14.0004 23.7944L13.2049 24.5899C13.6442 25.0292 14.3565 25.0292 14.7959 24.5899L14.0004 23.7944ZM10.7276 18.9306C10.2882 18.4913 9.57591 18.4913 9.13657 18.9306C8.69723 19.37 8.69723 20.0823 9.13657 20.5216L10.7276 18.9306ZM15.1254 15.6578C15.1254 15.0365 14.6217 14.5328 14.0004 14.5328C13.379 14.5328 12.8754 15.0365 12.8754 15.6578H15.1254ZM25.6196 8.71424L24.8642 9.54788L24.8642 9.54789L25.6196 8.71424ZM14.3663 4.45166L14.3668 3.32666H14.3668L14.3663 4.45166ZM2.46843 8.69876L3.16813 9.5797L3.16813 9.5797L2.46843 8.69876ZM25.6192 10.3032L24.8237 9.50773V9.50773L25.6192 10.3032ZM23.9923 11.9301L24.7878 12.7256L24.7878 12.7256L23.9923 11.9301ZM22.4997 12.1137L21.9207 13.0783L21.9207 13.0783L22.4997 12.1137ZM20.088 10.666L20.667 9.70144V9.70144L20.088 10.666ZM19.5001 9.50845L20.6205 9.60983V9.60982L19.5001 9.50845ZM2.40952 10.3614L3.20502 9.56588L2.40952 10.3614ZM3.98066 11.9325L3.18516 12.728V12.728L3.98066 11.9325ZM5.47371 12.1159L6.05311 13.0802L6.05311 13.0802L5.47371 12.1159ZM7.95825 10.6231L8.53765 11.5874L7.95825 10.6231ZM8.55075 9.57533L9.67575 9.57484V9.57484L8.55075 9.57533ZM17.2732 18.9306L13.2049 22.9989L14.7959 24.5899L18.8641 20.5216L17.2732 18.9306ZM14.7959 22.9989L10.7276 18.9306L9.13657 20.5216L13.2049 24.5899L14.7959 22.9989ZM12.8754 15.6578L12.8754 23.7944H15.1254L15.1254 15.6578H12.8754ZM26.375 7.8806C24.6901 6.35377 20.5716 3.32937 14.3668 3.32666L14.3658 5.57666C19.8059 5.57904 23.4088 8.22901 24.8642 9.54788L26.375 7.8806ZM14.3668 3.32666C8.18926 3.32397 3.65411 6.32035 1.76874 7.81782L3.16813 9.5797C4.86643 8.23081 8.91315 5.57428 14.3658 5.57666L14.3668 3.32666ZM24.8237 9.50773L23.1968 11.1346L24.7878 12.7256L26.4147 11.0987L24.8237 9.50773ZM23.0787 11.1491L20.667 9.70144L19.509 11.6306L21.9207 13.0783L23.0787 11.1491ZM20.6205 9.60982L20.9381 6.09889L18.6973 5.89614L18.3796 9.40708L20.6205 9.60982ZM1.61403 11.1569L3.18516 12.728L4.77615 11.137L3.20502 9.56588L1.61403 11.1569ZM6.05311 13.0802L8.53765 11.5874L7.37885 9.65874L4.89432 11.1515L6.05311 13.0802ZM9.67575 9.57484L9.67402 5.60357L7.42402 5.60455L7.42575 9.57582L9.67575 9.57484ZM8.53765 11.5874C9.2441 11.1629 9.6761 10.399 9.67575 9.57484L7.42575 9.57582C7.42576 9.60977 7.40796 9.64125 7.37885 9.65874L8.53765 11.5874ZM3.18516 12.728C3.94697 13.4898 5.12963 13.635 6.05311 13.0802L4.89432 11.1515C4.85627 11.1744 4.80754 11.1684 4.77615 11.137L3.18516 12.728ZM20.667 9.70144C20.6352 9.68235 20.6171 9.64676 20.6205 9.60983L18.3796 9.40708C18.2985 10.3035 18.7373 11.1673 19.509 11.6306L20.667 9.70144ZM23.1968 11.1346C23.1655 11.166 23.1168 11.172 23.0787 11.1491L21.9207 13.0783C22.8441 13.6326 24.0263 13.4871 24.7878 12.7256L23.1968 11.1346ZM1.76874 7.81782C0.662441 8.69651 0.709594 10.2524 1.61403 11.1569L3.20502 9.56588C3.18369 9.54455 3.18671 9.5321 3.18651 9.53935C3.18641 9.54309 3.1853 9.55161 3.18002 9.56239C3.17746 9.56764 3.17449 9.57219 3.17164 9.57574C3.16874 9.57935 3.16708 9.58053 3.16813 9.5797L1.76874 7.81782ZM24.8642 9.54789C24.8614 9.54534 24.8531 9.53609 24.8467 9.52096C24.8407 9.50697 24.8395 9.49553 24.8395 9.48932C24.8396 9.47763 24.8435 9.48791 24.8237 9.50773L26.4147 11.0987C27.2651 10.2483 27.3768 8.78836 26.375 7.8806L24.8642 9.54789Z" fill="white"/>
</g>
<defs>
<clipPath id="clip0_7710_82944">
<rect width="27" height="27" fill="white" transform="translate(0.5 0.5)"/>
</clipPath>
</defs>
</svg>
