<svg width="43" height="43" viewBox="0 0 43 43" fill="none" xmlns="http://www.w3.org/2000/svg">
<path d="M9.34722 9.13536C9.34722 7.45741 10.7075 6.09717 12.3854 6.09717H13.2535C14.9314 6.09717 16.2917 7.45741 16.2917 9.13536V34.309C16.2917 35.9869 14.9314 37.3472 13.2535 37.3472H12.3854C10.7075 37.3472 9.34722 35.9869 9.34722 34.309V9.13536Z" fill="white"/>
<path d="M26.7083 9.13536C26.7083 7.45741 28.0686 6.09717 29.7465 6.09717H30.6146C32.2925 6.09717 33.6528 7.45741 33.6528 9.13536V34.309C33.6528 35.9869 32.2925 37.3472 30.6146 37.3472H29.7465C28.0686 37.3472 26.7083 35.9869 26.7083 34.309V9.13536Z" fill="white"/>
</svg>
