<svg width="32" height="32" viewBox="0 0 32 32" fill="none" xmlns="http://www.w3.org/2000/svg">
<path d="M22.75 18.25L20.4355 15.9355C20.1542 15.6543 19.7727 15.4963 19.375 15.4963C18.9773 15.4963 18.5958 15.6543 18.3145 15.9355L11.5 22.75M10.75 9.25H21.25C22.0784 9.25 22.75 9.92157 22.75 10.75V21.25C22.75 22.0784 22.0784 22.75 21.25 22.75H10.75C9.92157 22.75 9.25 22.0784 9.25 21.25V10.75C9.25 9.92157 9.92157 9.25 10.75 9.25ZM15.25 13.75C15.25 14.5784 14.5784 15.25 13.75 15.25C12.9216 15.25 12.25 14.5784 12.25 13.75C12.25 12.9216 12.9216 12.25 13.75 12.25C14.5784 12.25 15.25 12.9216 15.25 13.75Z" stroke="white" stroke-width="1.5" stroke-linecap="round" stroke-linejoin="round"/>
</svg>
