<svg width="43" height="43" viewBox="0 0 43 43" fill="none" xmlns="http://www.w3.org/2000/svg">
<path d="M11.9861 12.0069H11.9514H11.9716M11.9861 21.5555H11.9514H11.9716M11.9861 31.1041H11.9514H11.9716M21.5347 12.0069H21.5H21.5202M21.5347 21.5555H21.5H21.5202M21.5347 31.1041H21.5H21.5202M31.0833 12.0069H31.0486H31.0689M31.0833 21.5555H31.0486H31.0689M31.0833 31.1041H31.0486H31.0689M13.6875 12.0069C13.6875 12.9657 12.9102 13.743 11.9514 13.743C10.9926 13.743 10.2153 12.9657 10.2153 12.0069C10.2153 11.048 10.9926 10.2708 11.9514 10.2708C12.9102 10.2708 13.6875 11.048 13.6875 12.0069ZM13.6875 21.5555C13.6875 22.5143 12.9102 23.2916 11.9514 23.2916C10.9926 23.2916 10.2153 22.5143 10.2153 21.5555C10.2153 20.5966 10.9926 19.8194 11.9514 19.8194C12.9102 19.8194 13.6875 20.5966 13.6875 21.5555ZM13.6875 31.1041C13.6875 32.0629 12.9102 32.8402 11.9514 32.8402C10.9926 32.8402 10.2153 32.0629 10.2153 31.1041C10.2153 30.1453 10.9926 29.368 11.9514 29.368C12.9102 29.368 13.6875 30.1453 13.6875 31.1041ZM23.2361 12.0069C23.2361 12.9657 22.4588 13.743 21.5 13.743C20.5412 13.743 19.7639 12.9657 19.7639 12.0069C19.7639 11.048 20.5412 10.2708 21.5 10.2708C22.4588 10.2708 23.2361 11.048 23.2361 12.0069ZM23.2361 21.5555C23.2361 22.5143 22.4588 23.2916 21.5 23.2916C20.5412 23.2916 19.7639 22.5143 19.7639 21.5555C19.7639 20.5966 20.5412 19.8194 21.5 19.8194C22.4588 19.8194 23.2361 20.5966 23.2361 21.5555ZM23.2361 31.1041C23.2361 32.0629 22.4588 32.8402 21.5 32.8402C20.5412 32.8402 19.7639 32.0629 19.7639 31.1041C19.7639 30.1453 20.5412 29.368 21.5 29.368C22.4588 29.368 23.2361 30.1453 23.2361 31.1041ZM32.7847 12.0069C32.7847 12.9657 32.0074 13.743 31.0486 13.743C30.0898 13.743 29.3125 12.9657 29.3125 12.0069C29.3125 11.048 30.0898 10.2708 31.0486 10.2708C32.0074 10.2708 32.7847 11.048 32.7847 12.0069ZM32.7847 21.5555C32.7847 22.5143 32.0074 23.2916 31.0486 23.2916C30.0898 23.2916 29.3125 22.5143 29.3125 21.5555C29.3125 20.5966 30.0898 19.8194 31.0486 19.8194C32.0074 19.8194 32.7847 20.5966 32.7847 21.5555ZM32.7847 31.1041C32.7847 32.0629 32.0074 32.8402 31.0486 32.8402C30.0898 32.8402 29.3125 32.0629 29.3125 31.1041C29.3125 30.1453 30.0898 29.368 31.0486 29.368C32.0074 29.368 32.7847 30.1453 32.7847 31.1041Z" stroke="white" stroke-width="3.03819" stroke-linecap="round" stroke-linejoin="round"/>
</svg>
