<svg width="43" height="43" viewBox="0 0 43 43" fill="none" xmlns="http://www.w3.org/2000/svg">
<path d="M4.13889 4.19434L38.8611 37.2631M33.4618 22.7625C33.5872 22.0911 33.6511 21.4106 33.6528 20.7287V17.4218M9.34722 17.4218V20.7287C9.3119 23.0422 10.0054 25.3126 11.3382 27.247C12.6711 29.1813 14.5821 30.6909 16.8246 31.5808C19.0671 32.4706 21.5381 32.7 23.9188 32.2393C26.2995 31.7785 28.4806 30.6488 30.1806 28.9959M26.7083 16.3306V9.15465C26.7013 8.04085 26.3008 6.96171 25.5715 6.09103C24.8421 5.22035 23.8262 4.6088 22.6875 4.35486C21.5488 4.10092 20.3535 4.21937 19.2941 4.69114C18.2346 5.16291 17.3728 5.96054 16.8472 6.95558M16.2917 15.7684V20.7287C16.2926 21.7092 16.5985 22.6673 17.1709 23.4822C17.7432 24.2972 18.5563 24.9323 19.5075 25.3073C20.4586 25.6824 21.5051 25.7806 22.5148 25.5896C23.5245 25.3986 24.4522 24.9269 25.1806 24.234M21.5 32.9262V38.0142M14.5556 38.9166H28.4444" stroke="white" stroke-width="2.25694" stroke-linecap="round" stroke-linejoin="round"/>
</svg>
