<svg width="43" height="43" viewBox="0 0 43 43" fill="none" xmlns="http://www.w3.org/2000/svg">
<path d="M33.6528 17.4218V20.7287C33.6528 23.7984 32.3724 26.7423 30.0933 28.9128C27.8142 31.0834 24.7231 32.3028 21.5 32.3028M21.5 32.3028C18.2769 32.3028 15.1858 31.0834 12.9067 28.9128C10.6276 26.7423 9.34721 23.7984 9.34721 20.7287V17.4218M21.5 32.3028V37.2631M14.5555 38.9166H28.4444M21.5 4.19434C20.1187 4.19434 18.7939 4.71694 17.8171 5.64718C16.8404 6.57742 16.2917 7.8391 16.2917 9.15465V20.7287C16.2917 22.0443 16.8404 23.306 17.8171 24.2362C18.7939 25.1664 20.1187 25.689 21.5 25.689C22.8813 25.689 24.2061 25.1664 25.1828 24.2362C26.1596 23.306 26.7083 22.0443 26.7083 20.7287V9.15465C26.7083 7.8391 26.1596 6.57742 25.1828 5.64718C24.2061 4.71694 22.8813 4.19434 21.5 4.19434Z" stroke="white" stroke-width="2.25694" stroke-linecap="round" stroke-linejoin="round"/>
</svg>
