<svg width="24" height="24" viewBox="0 0 24 24" fill="none" xmlns="http://www.w3.org/2000/svg">
<path d="M4.99609 12H5.09609M11.9961 12H12.0961M18.9961 12H19.0961M13 12C13 12.5523 12.5523 13 12 13C11.4477 13 11 12.5523 11 12C11 11.4477 11.4477 11 12 11C12.5523 11 13 11.4477 13 12ZM20 12C20 12.5523 19.5523 13 19 13C18.4477 13 18 12.5523 18 12C18 11.4477 18.4477 11 19 11C19.5523 11 20 11.4477 20 12ZM6 12C6 12.5523 5.55229 13 5.00001 13C4.44772 13 4 12.5523 4 12C4 11.4477 4.44771 11 4.99999 11C5.55228 11 6 11.4477 6 12Z" stroke="white" stroke-width="1.75" stroke-linecap="round" stroke-linejoin="round"/>
</svg>
