<svg width="27" height="27" viewBox="0 0 27 27" fill="none" xmlns="http://www.w3.org/2000/svg">
<path d="M5.39569 13.5992H5.52569M13.1957 13.5992H13.3257M20.9957 13.5992H21.1257M14.2833 13.5992C14.2833 14.1975 13.7982 14.6825 13.1999 14.6825C12.6016 14.6825 12.1166 14.1975 12.1166 13.5992C12.1166 13.0009 12.6016 12.5159 13.1999 12.5159C13.7982 12.5159 14.2833 13.0009 14.2833 13.5992ZM21.8666 13.5992C21.8666 14.1975 21.3816 14.6825 20.7833 14.6825C20.185 14.6825 19.6999 14.1975 19.6999 13.5992C19.6999 13.0009 20.1849 12.5159 20.7833 12.5159C21.3816 12.5159 21.8666 13.0009 21.8666 13.5992ZM6.69993 13.5992C6.69994 14.1975 6.21492 14.6825 5.61661 14.6825C5.0183 14.6825 4.53327 14.1975 4.53326 13.5992C4.53326 13.0009 5.01828 12.5159 5.61659 12.5159C6.2149 12.5159 6.69993 13.0009 6.69993 13.5992Z" stroke="white" stroke-width="1.69" stroke-linecap="round" stroke-linejoin="round"/>
</svg>
