<svg width="25" height="24" viewBox="0 0 25 24" fill="none" xmlns="http://www.w3.org/2000/svg">
<path d="M12.1503 10C12.7026 10 13.1503 9.55229 13.1503 9.00001C13.1503 8.44772 12.7026 8.00001 12.1503 8.00001C11.5981 8.00001 11.1503 8.44772 11.1503 9.00001C11.1503 9.55229 11.5981 10 12.1503 10Z" stroke="white" stroke-width="1.75" stroke-linecap="round" stroke-linejoin="round"/>
<path d="M19.1503 10C19.7026 10 20.1503 9.55229 20.1503 9.00001C20.1503 8.44772 19.7026 8.00001 19.1503 8.00001C18.5981 8.00001 18.1503 8.44772 18.1503 9.00001C18.1503 9.55229 18.5981 10 19.1503 10Z" stroke="white" stroke-width="1.75" stroke-linecap="round" stroke-linejoin="round"/>
<path d="M5.15034 10C5.70262 10 6.15034 9.55229 6.15034 9.00001C6.15034 8.44772 5.70262 8.00001 5.15034 8.00001C4.59805 8.00001 4.15034 8.44772 4.15034 9.00001C4.15034 9.55229 4.59805 10 5.15034 10Z" stroke="white" stroke-width="1.75" stroke-linecap="round" stroke-linejoin="round"/>
<path d="M12.1503 16C12.7026 16 13.1503 15.5523 13.1503 15C13.1503 14.4477 12.7026 14 12.1503 14C11.5981 14 11.1503 14.4477 11.1503 15C11.1503 15.5523 11.5981 16 12.1503 16Z" stroke="white" stroke-width="1.75" stroke-linecap="round" stroke-linejoin="round"/>
<path d="M19.1503 16C19.7026 16 20.1503 15.5523 20.1503 15C20.1503 14.4477 19.7026 14 19.1503 14C18.5981 14 18.1503 14.4477 18.1503 15C18.1503 15.5523 18.5981 16 19.1503 16Z" stroke="white" stroke-width="1.75" stroke-linecap="round" stroke-linejoin="round"/>
<path d="M5.15034 16C5.70262 16 6.15034 15.5523 6.15034 15C6.15034 14.4477 5.70262 14 5.15034 14C4.59805 14 4.15034 14.4477 4.15034 15C4.15034 15.5523 4.59805 16 5.15034 16Z" stroke="white" stroke-width="1.75" stroke-linecap="round" stroke-linejoin="round"/>
</svg>
