<svg width="16" height="17" viewBox="0 0 16 17" fill="none" xmlns="http://www.w3.org/2000/svg">
<path d="M2.5 13.5C2.5 12.9477 2.94772 12.5 3.5 12.5H4.5C5.05228 12.5 5.5 12.9477 5.5 13.5V15.5C5.5 16.0523 5.05228 16.5 4.5 16.5H3.5C2.94772 16.5 2.5 16.0523 2.5 15.5V13.5Z" fill="#45F777"/>
<path d="M6.5 10.5C6.5 9.94772 6.94772 9.5 7.5 9.5H8.5C9.05228 9.5 9.5 9.94772 9.5 10.5V15.5C9.5 16.0523 9.05228 16.5 8.5 16.5H7.5C6.94772 16.5 6.5 16.0523 6.5 15.5V10.5Z" fill="#45F777"/>
<path d="M10.5 7.5C10.5 6.94772 10.9477 6.5 11.5 6.5H12.5C13.0523 6.5 13.5 6.94772 13.5 7.5V15.5C13.5 16.0523 13.0523 16.5 12.5 16.5H11.5C10.9477 16.5 10.5 16.0523 10.5 15.5V7.5Z" fill="#45F777"/>
</svg>
