<svg width="43" height="43" viewBox="0 0 43 43" fill="none" xmlns="http://www.w3.org/2000/svg">
<path d="M16.2917 12.8749V11.3558C15.4527 11.3558 14.7726 12.0359 14.7726 12.8749H16.2917ZM14.7726 30.236C14.7726 31.0749 15.4527 31.7551 16.2917 31.7551C17.1306 31.7551 17.8108 31.0749 17.8108 30.236H14.7726ZM17.1597 20.0363C16.3207 20.0363 15.6406 20.7164 15.6406 21.5554C15.6406 22.3944 16.3207 23.0745 17.1597 23.0745V20.0363ZM7.39409 9.40264C7.39409 8.32396 8.26854 7.44952 9.34722 7.44952V4.41132C6.59059 4.41132 4.3559 6.64601 4.3559 9.40264H7.39409ZM7.39409 33.7082V9.40264H4.3559V33.7082H7.39409ZM9.34722 35.6613C8.26854 35.6613 7.39409 34.7869 7.39409 33.7082H4.3559C4.3559 36.4648 6.59059 38.6995 9.34722 38.6995V35.6613ZM33.6528 35.6613H9.34722V38.6995H33.6528V35.6613ZM35.6059 33.7082C35.6059 34.7869 34.7315 35.6613 33.6528 35.6613V38.6995C36.4094 38.6995 38.6441 36.4648 38.6441 33.7082H35.6059ZM35.6059 9.40264V33.7082H38.6441V9.40264H35.6059ZM33.6528 7.44952C34.7315 7.44952 35.6059 8.32396 35.6059 9.40264H38.6441C38.6441 6.64601 36.4094 4.41132 33.6528 4.41132V7.44952ZM9.34722 7.44952H33.6528V4.41132H9.34722V7.44952ZM14.7726 12.8749V30.236H17.8108V12.8749H14.7726ZM16.2917 14.394H23.2361V11.3558H16.2917V14.394ZM23.2361 12.8749C23.2361 14.394 23.2354 14.394 23.2347 14.394C23.2345 14.394 23.2338 14.394 23.2333 14.394C23.2325 14.394 23.2317 14.394 23.2309 14.394C23.2294 14.3939 23.2282 14.3939 23.2272 14.3939C23.2252 14.3939 23.2242 14.3939 23.2241 14.3939C23.2239 14.3939 23.2273 14.3939 23.2342 14.3942C23.2481 14.3946 23.2755 14.3958 23.3144 14.3986C23.3927 14.4042 23.5144 14.4161 23.6645 14.4411C23.9719 14.4923 24.3586 14.592 24.7269 14.7761C25.0892 14.9573 25.4053 15.2052 25.6343 15.5486C25.8568 15.8824 26.0573 16.3959 26.0573 17.2151H29.0955C29.0955 15.8643 28.7534 14.7501 28.1622 13.8633C27.5773 12.986 26.8084 12.42 26.0856 12.0587C25.3688 11.7003 24.6704 11.5287 24.164 11.4443C23.9072 11.4015 23.6899 11.3795 23.5308 11.3681C23.451 11.3624 23.3852 11.3593 23.3355 11.3577C23.3106 11.3568 23.2897 11.3564 23.2731 11.3561C23.2647 11.356 23.2575 11.3559 23.2513 11.3558C23.2482 11.3558 23.2454 11.3558 23.2429 11.3558C23.2416 11.3558 23.2404 11.3558 23.2393 11.3558C23.2387 11.3558 23.2379 11.3558 23.2376 11.3558C23.2369 11.3558 23.2361 11.3558 23.2361 12.8749ZM26.0573 17.2151C26.0573 18.0344 25.8568 18.5478 25.6343 18.8817C25.4053 19.2251 25.0892 19.473 24.7269 19.6542C24.3586 19.8383 23.9719 19.9379 23.6645 19.9892C23.5144 20.0142 23.3927 20.0261 23.3144 20.0317C23.2755 20.0345 23.2481 20.0356 23.2342 20.0361C23.2273 20.0363 23.2239 20.0364 23.2241 20.0364C23.2242 20.0364 23.2252 20.0364 23.2272 20.0364C23.2282 20.0363 23.2294 20.0363 23.2309 20.0363C23.2317 20.0363 23.2325 20.0363 23.2333 20.0363C23.2338 20.0363 23.2345 20.0363 23.2347 20.0363C23.2354 20.0363 23.2361 20.0363 23.2361 21.5554C23.2361 23.0745 23.2369 23.0745 23.2376 23.0745C23.2379 23.0745 23.2387 23.0745 23.2393 23.0745C23.2404 23.0745 23.2416 23.0745 23.2429 23.0745C23.2454 23.0745 23.2482 23.0745 23.2513 23.0745C23.2575 23.0744 23.2647 23.0743 23.2731 23.0742C23.2897 23.0739 23.3106 23.0734 23.3355 23.0726C23.3852 23.071 23.451 23.0679 23.5308 23.0622C23.6899 23.0508 23.9072 23.0288 24.164 22.986C24.6704 22.9016 25.3688 22.73 26.0856 22.3716C26.8084 22.0102 27.5773 21.4443 28.1622 20.567C28.7534 19.6802 29.0955 18.566 29.0955 17.2151H26.0573ZM23.2361 20.0363H17.1597V23.0745H23.2361V20.0363Z" fill="white"/>
</svg>
