<svg width="24" height="24" viewBox="0 0 24 24" fill="none" xmlns="http://www.w3.org/2000/svg">
<path d="M12 17L12.0001 22M5.00002 17.0001L19 17L19 15.24C18.9998 14.8679 18.8958 14.5032 18.6997 14.187C18.5036 13.8708 18.2232 13.6156 17.89 13.45L16.11 12.55C15.7768 12.3844 15.4963 12.1292 15.3003 11.813C15.1042 11.4967 15.0002 11.1321 15 10.76L14.9999 6.00001L15.9999 6C16.5304 6 17.0391 5.78928 17.4141 5.4142C17.7892 5.03913 17.9999 4.53042 17.9999 3.99998C17.9999 3.46955 17.7892 2.96084 17.4141 2.58577C17.039 2.2107 16.5303 2 15.9999 2L7.99989 2.00007C7.46945 2.00007 6.96075 2.21079 6.58568 2.58587C6.21061 2.96094 5.9999 3.46965 5.9999 4.00009C5.99991 4.53052 6.21063 5.03922 6.5857 5.41429C6.96078 5.78936 7.46949 6.00007 7.99992 6.00007L8.99992 6.00006L8.99996 10.7601C8.99977 11.1321 8.89578 11.4968 8.69969 11.813C8.5036 12.1292 8.22319 12.3845 7.88998 12.5501L6.10998 13.4501C5.77677 13.6157 5.49636 13.8709 5.30027 14.1871C5.10418 14.5034 5.00019 14.868 5 15.2401L5.00002 17.0001Z" stroke="white" stroke-width="1.75" stroke-linecap="round" stroke-linejoin="round"/>
</svg>
