<svg width="43" height="43" viewBox="0 0 43 43" fill="none" xmlns="http://www.w3.org/2000/svg">
<path d="M30.1805 21.5557C30.1805 26.3498 26.2941 30.2362 21.5 30.2362C16.7058 30.2362 12.8194 26.3498 12.8194 21.5557C12.8194 16.7615 16.7058 12.8751 21.5 12.8751C26.2941 12.8751 30.1805 16.7615 30.1805 21.5557Z" fill="#AEFB3C"/>
<path fill-rule="evenodd" clip-rule="evenodd" d="M30.1805 21.5557C30.1805 26.3498 26.2941 30.2362 21.5 30.2362C16.7058 30.2362 12.8194 26.3498 12.8194 21.5557C12.8194 16.7615 16.7058 12.8751 21.5 12.8751C26.2941 12.8751 30.1805 16.7615 30.1805 21.5557Z" fill="#AEFB3C"/>
<path d="M37.125 21.5557C37.125 30.1851 30.1294 37.1807 21.5 37.1807C12.8705 37.1807 5.87498 30.1851 5.87498 21.5557C5.87498 12.9262 12.8705 5.93066 21.5 5.93066C30.1294 5.93066 37.125 12.9262 37.125 21.5557ZM30.1805 21.5557C30.1805 26.3498 26.2941 30.2362 21.5 30.2362C16.7058 30.2362 12.8194 26.3498 12.8194 21.5557C12.8194 16.7615 16.7058 12.8751 21.5 12.8751C26.2941 12.8751 30.1805 16.7615 30.1805 21.5557Z" stroke="#AEFB3C" stroke-width="2.25694" stroke-linecap="round" stroke-linejoin="round"/>
</svg>
