<svg width="43" height="43" viewBox="0 0 43 43" fill="none" xmlns="http://www.w3.org/2000/svg">
<path d="M30.1806 21.5554C30.1806 26.3496 26.2941 30.236 21.5 30.236C16.7059 30.236 12.8194 26.3496 12.8194 21.5554C12.8194 16.7613 16.7059 12.8749 21.5 12.8749C26.2941 12.8749 30.1806 16.7613 30.1806 21.5554Z" fill="white"/>
<path fill-rule="evenodd" clip-rule="evenodd" d="M30.1806 21.5554C30.1806 26.3496 26.2941 30.236 21.5 30.236C16.7059 30.236 12.8194 26.3496 12.8194 21.5554C12.8194 16.7613 16.7059 12.8749 21.5 12.8749C26.2941 12.8749 30.1806 16.7613 30.1806 21.5554Z" fill="white"/>
<path d="M37.125 21.5554C37.125 30.1849 30.1294 37.1804 21.5 37.1804C12.8706 37.1804 5.875 30.1849 5.875 21.5554C5.875 12.926 12.8706 5.93042 21.5 5.93042C30.1294 5.93042 37.125 12.926 37.125 21.5554ZM30.1806 21.5554C30.1806 26.3496 26.2941 30.236 21.5 30.236C16.7059 30.236 12.8194 26.3496 12.8194 21.5554C12.8194 16.7613 16.7059 12.8749 21.5 12.8749C26.2941 12.8749 30.1806 16.7613 30.1806 21.5554Z" stroke="white" stroke-width="2.25694" stroke-linecap="round" stroke-linejoin="round"/>
</svg>
