<svg width="43" height="43" viewBox="0 0 43 43" fill="none" xmlns="http://www.w3.org/2000/svg">
<path d="M38.8613 14.6112V4.1945M32.9583 14.611V4.19434M9.77798 18.6261L14.587 14.6151C15.2262 14.082 15.5041 13.2302 15.3024 12.4227L14.0916 7.57502C13.8502 6.60874 12.9821 5.93079 11.9861 5.93079H7.89919C6.77046 5.93079 5.84731 6.79878 5.90281 7.92614C6.08786 11.6856 7.37344 20.0986 14.6837 27.4152C21.9846 34.7225 30.9245 36.5619 34.9628 37.025C36.1535 37.1615 37.1251 36.2092 37.1251 35.0106V31.0637C37.1251 30.0674 36.4467 29.1991 35.48 28.9581L30.4843 27.7124C29.7447 27.528 28.9627 27.745 28.424 28.2842L23.438 33.2745" stroke="#2DFF69" stroke-width="3.03819" stroke-linecap="round" stroke-linejoin="round"/>
</svg>
