<svg width="24" height="24" viewBox="0 0 24 24" fill="none" xmlns="http://www.w3.org/2000/svg">
<path d="M20.3333 2H3.66667C2.74619 2 2 2.74619 2 3.66667V20.3333C2 21.2538 2.74619 22 3.66667 22H20.3333C21.2538 22 22 21.2538 22 20.3333V3.66667C22 2.74619 21.2538 2 20.3333 2Z" fill="#00A1E0"/>
<path d="M10.6025 7.34915C11.1708 6.80454 11.9287 6.5024 12.7159 6.50665C13.8159 6.50665 14.7759 7.07581 15.2867 7.92165C15.7475 7.73132 16.2414 7.6339 16.74 7.63498C18.725 7.63498 20.3334 9.14165 20.3334 11C20.3334 12.8591 18.725 14.3666 16.74 14.3666C16.5025 14.3666 16.265 14.3441 16.0325 14.3C15.5825 15.0466 14.7242 15.55 13.74 15.55C13.3284 15.55 12.9384 15.4616 12.5909 15.3041C12.135 16.3008 11.0717 17 9.83335 17C8.54252 17 7.44335 16.2416 7.02085 15.1783C6.83257 15.2155 6.64111 15.2342 6.44919 15.2341C4.91252 15.2333 3.66669 14.0658 3.66669 12.6241C3.66669 11.6575 4.22669 10.8141 5.05835 10.3633C4.88272 9.98971 4.79167 9.58197 4.79169 9.16915C4.79169 7.51081 6.24085 6.16748 8.02835 6.16748C9.07835 6.16748 10.0117 6.63081 10.6025 7.34915V7.34915Z" fill="white"/>
</svg>
