<svg width="43" height="43" viewBox="0 0 43 43" fill="none" xmlns="http://www.w3.org/2000/svg">
<path d="M4.13889 36.0519C3.51565 36.0519 3.01041 36.5572 3.01041 37.1804C3.01041 37.8037 3.51565 38.3089 4.13889 38.3089V36.0519ZM38.8611 38.3089C39.4843 38.3089 39.9896 37.8037 39.9896 37.1804C39.9896 36.5572 39.4843 36.0519 38.8611 36.0519V38.3089ZM25.3317 18.6356C24.891 19.0763 24.891 19.7908 25.3317 20.2315C25.7724 20.6722 26.4869 20.6722 26.9276 20.2315L25.3317 18.6356ZM29.9876 15.5755L30.7856 16.3734C30.9972 16.1618 31.1161 15.8748 31.1161 15.5755C31.1161 15.2762 30.9972 14.9892 30.7856 14.7775L29.9876 15.5755ZM26.9276 10.9195C26.4869 10.4788 25.7724 10.4788 25.3317 10.9195C24.891 11.3602 24.891 12.0747 25.3317 12.5154L26.9276 10.9195ZM14.1991 24.0639C14.1991 24.6871 14.7043 25.1924 15.3275 25.1924C15.9508 25.1924 16.456 24.6871 16.456 24.0639H14.1991ZM18.414 15.5762V16.7047H18.414L18.414 15.5762ZM4.13889 38.3089H38.8611V36.0519H4.13889V38.3089ZM26.9276 20.2315L30.7856 16.3734L29.1897 14.7775L25.3317 18.6356L26.9276 20.2315ZM30.7856 14.7775L26.9276 10.9195L25.3317 12.5154L29.1897 16.3734L30.7856 14.7775ZM16.456 24.0639V18.6627H14.1991V24.0639H16.456ZM16.456 18.6627C16.456 18.1434 16.6623 17.6454 17.0295 17.2782L15.4336 15.6823C14.6431 16.4727 14.1991 17.5448 14.1991 18.6627H16.456ZM17.0295 17.2782C17.3967 16.911 17.8947 16.7047 18.414 16.7047V14.4478C17.2961 14.4478 16.224 14.8918 15.4336 15.6823L17.0295 17.2782ZM18.414 16.7047L29.9877 16.704L29.9876 14.447L18.4139 14.4478L18.414 16.7047ZM7.61111 7.05889H35.3889V4.80195H7.61111V7.05889ZM37.7326 9.40264V26.7638H39.9896V9.40264H37.7326ZM35.3889 29.1075H7.61111V31.3644H35.3889V29.1075ZM5.26736 26.7638V9.40264H3.01041V26.7638H5.26736ZM7.61111 29.1075C6.31669 29.1075 5.26736 28.0582 5.26736 26.7638H3.01041C3.01041 29.3046 5.07022 31.3644 7.61111 31.3644V29.1075ZM37.7326 26.7638C37.7326 28.0582 36.6833 29.1075 35.3889 29.1075V31.3644C37.9298 31.3644 39.9896 29.3046 39.9896 26.7638H37.7326ZM35.3889 7.05889C36.6833 7.05889 37.7326 8.10822 37.7326 9.40264H39.9896C39.9896 6.86175 37.9298 4.80195 35.3889 4.80195V7.05889ZM7.61111 4.80195C5.07021 4.80195 3.01041 6.86175 3.01041 9.40264H5.26736C5.26736 8.10822 6.31669 7.05889 7.61111 7.05889V4.80195Z" fill="white"/>
</svg>
