<svg width="43" height="43" viewBox="0 0 43 43" fill="none" xmlns="http://www.w3.org/2000/svg">
<path d="M34.5909 10.3409C34.1502 10.7816 34.1502 11.4961 34.5909 11.9368C35.0316 12.3775 35.7461 12.3775 36.1868 11.9368L34.5909 10.3409ZM39.7292 6.79853L40.5271 7.59648C40.7387 7.38485 40.8576 7.09782 40.8576 6.79853C40.8576 6.49924 40.7387 6.21221 40.5271 6.00058L39.7292 6.79853ZM36.1868 1.6603C35.7461 1.21961 35.0316 1.21961 34.5909 1.6603C34.1502 2.101 34.1502 2.81551 34.5909 3.2562L36.1868 1.6603ZM29.3125 5.67006C28.6893 5.67006 28.184 6.17529 28.184 6.79853C28.184 7.42177 28.6893 7.927 29.3125 7.927V5.67006ZM27.6465 20.6173C28.0872 21.058 28.8017 21.058 29.2424 20.6173C29.6831 20.1766 29.6831 19.4621 29.2424 19.0214L27.6465 20.6173ZM24.1042 15.4791L23.3062 14.6811C23.0946 14.8928 22.9757 15.1798 22.9757 15.4791C22.9757 15.7784 23.0946 16.0654 23.3062 16.277L24.1042 15.4791ZM29.2424 11.9368C29.6831 11.4961 29.6831 10.7816 29.2424 10.3409C28.8017 9.90016 28.0872 9.90016 27.6465 10.3409L29.2424 11.9368ZM34.5208 16.6076C35.1441 16.6076 35.6493 16.1023 35.6493 15.4791C35.6493 14.8558 35.1441 14.3506 34.5208 14.3506V16.6076ZM5.9028 7.92583L7.02991 7.87035L5.9028 7.92583ZM14.6837 27.4148L13.8854 28.2124L14.6837 27.4148ZM34.9628 37.0247L35.0913 35.9036L34.9628 37.0247ZM14.0915 7.57471L15.1864 7.30124L15.1864 7.30124L14.0915 7.57471ZM15.3024 12.4224L16.3972 12.1489L15.3024 12.4224ZM14.587 14.6148L13.8642 13.7482H13.8642L14.587 14.6148ZM35.48 28.9578L35.7531 27.8628L35.7531 27.8628L35.48 28.9578ZM30.4842 27.7121L30.7573 26.6171V26.6171L30.4842 27.7121ZM28.424 28.2839L29.2223 29.0815L28.424 28.2839ZM36.1868 11.9368L40.5271 7.59648L38.9312 6.00058L34.5909 10.3409L36.1868 11.9368ZM40.5271 6.00058L36.1868 1.6603L34.5909 3.2562L38.9312 7.59648L40.5271 6.00058ZM39.7292 5.67006H29.3125V7.927H39.7292V5.67006ZM29.2424 19.0214L24.9021 14.6811L23.3062 16.277L27.6465 20.6173L29.2424 19.0214ZM24.1042 15.4791C24.9021 16.277 24.9021 16.277 24.9021 16.277C24.9022 16.277 24.9022 16.2769 24.9022 16.2769C24.9023 16.2769 24.9023 16.2768 24.9024 16.2767C24.9025 16.2767 24.9026 16.2766 24.9027 16.2765C24.903 16.2761 24.9029 16.2763 24.9033 16.2758C24.9039 16.2752 24.9036 16.2755 24.9043 16.2749C24.9053 16.2738 24.9055 16.2736 24.907 16.2722C24.9115 16.2677 24.9058 16.2733 24.9107 16.2684C24.9281 16.251 24.9131 16.266 24.936 16.2432C24.9387 16.2404 24.9505 16.2287 24.9546 16.2246C24.9589 16.2202 24.9606 16.2186 24.9653 16.2138C24.966 16.2131 24.9702 16.2089 24.971 16.2081C25.0069 16.1722 24.941 16.2381 24.977 16.2021C25.0096 16.1696 24.9956 16.1836 25.033 16.1462C25.0765 16.1027 25.0551 16.1241 25.1031 16.0761C25.1245 16.0546 25.1607 16.0184 25.1865 15.9927C25.2137 15.9655 25.1818 15.9974 25.2093 15.9699C25.2306 15.9486 25.2113 15.9678 25.2328 15.9463C25.3051 15.8741 25.209 15.9701 25.2822 15.8969C25.2844 15.8948 25.2865 15.8927 25.2886 15.8905C25.2907 15.8884 25.2929 15.8863 25.295 15.8841C25.3282 15.8509 25.2748 15.9044 25.308 15.8711C25.3102 15.8689 25.3124 15.8668 25.3146 15.8646C25.3168 15.8624 25.319 15.8602 25.3212 15.858C25.3411 15.8381 25.3146 15.8646 25.3345 15.8446C25.3388 15.8403 25.3844 15.7948 25.3896 15.7896C25.4042 15.775 25.4319 15.7472 25.4473 15.7318C25.4523 15.7269 25.4572 15.7219 25.4622 15.717C25.4672 15.712 25.4722 15.707 25.4772 15.7019C25.4876 15.6916 25.4819 15.6972 25.4924 15.6868C25.4949 15.6842 25.4974 15.6817 25.5 15.6791C25.5026 15.6766 25.5051 15.674 25.5077 15.6715C25.5973 15.5819 25.5429 15.6362 25.6356 15.5435C25.6915 15.4876 25.613 15.5661 25.6691 15.5101C25.6697 15.5094 25.6853 15.4938 25.686 15.4931C25.6888 15.4903 25.6917 15.4875 25.6945 15.4846C25.6974 15.4818 25.7002 15.4789 25.7031 15.4761C25.7691 15.4101 25.6542 15.5249 25.7203 15.4589C25.7231 15.456 25.726 15.4531 25.7289 15.4502C25.7318 15.4473 25.7347 15.4444 25.7376 15.4415C25.7393 15.4399 25.7534 15.4258 25.7551 15.4241C25.7568 15.4223 25.7709 15.4083 25.7727 15.4065C25.7756 15.4035 25.7785 15.4006 25.7815 15.3976C25.7845 15.3947 25.7874 15.3917 25.7904 15.3888C25.8017 15.3774 25.7969 15.3823 25.8082 15.3709C25.8112 15.3679 25.8142 15.3649 25.8172 15.3619C25.8202 15.359 25.8232 15.356 25.8262 15.3529C25.8757 15.3035 25.7948 15.3844 25.8443 15.3349C25.8538 15.3253 25.8529 15.3262 25.8625 15.3166C25.8803 15.2989 25.863 15.3161 25.8808 15.2983C25.8863 15.2928 25.9122 15.2669 25.9179 15.2613C25.9881 15.1911 25.9979 15.1812 26.0704 15.1087C26.111 15.0681 26.1081 15.0711 26.1492 15.03C26.1788 15.0004 26.1994 14.9797 26.2295 14.9497C26.297 14.8822 26.2432 14.9359 26.3112 14.868C26.3349 14.8442 26.3081 14.8711 26.3318 14.8473C26.3655 14.8136 26.3188 14.8603 26.3525 14.8266C26.3692 14.81 26.3567 14.8224 26.3733 14.8058C26.3768 14.8023 26.3803 14.7989 26.3838 14.7954C26.3872 14.7919 26.3907 14.7884 26.3942 14.7849C26.3977 14.7814 26.4012 14.778 26.4047 14.7745C26.4082 14.771 26.4117 14.7675 26.4152 14.764C26.4197 14.7594 26.4316 14.7475 26.4362 14.743C26.4397 14.7395 26.4432 14.7359 26.4467 14.7324C26.4502 14.7289 26.4537 14.7254 26.4573 14.7219C26.4872 14.692 26.4485 14.7306 26.4784 14.7007C26.5067 14.6724 26.5351 14.644 26.5638 14.6154C27.5076 13.6716 28.5361 12.643 29.2424 11.9368L27.6465 10.3409C27.6387 10.3486 27.6224 10.365 27.6144 10.3729C27.6069 10.3805 27.6057 10.3816 27.5982 10.3892C27.5673 10.42 27.6126 10.3747 27.5817 10.4056C27.579 10.4083 27.5763 10.4111 27.5735 10.4138C27.5707 10.4166 27.568 10.4194 27.5652 10.4221C27.5616 10.4258 27.5522 10.4351 27.5485 10.4388C27.5469 10.4404 27.5333 10.454 27.5317 10.4556C27.5289 10.4585 27.5261 10.4613 27.5232 10.4641C27.5204 10.4669 27.5176 10.4698 27.5147 10.4726C27.507 10.4803 27.4883 10.4991 27.4804 10.5069C27.4775 10.5098 27.4746 10.5127 27.4717 10.5156C27.4688 10.5185 27.4659 10.5214 27.463 10.5243C27.4373 10.55 27.4713 10.516 27.4455 10.5418C27.3634 10.6239 27.4571 10.5303 27.3743 10.6131C27.3664 10.6209 27.346 10.6414 27.3379 10.6494C27.2862 10.7012 27.353 10.6344 27.3011 10.6863C27.2723 10.715 27.3113 10.6761 27.2825 10.7049C27.2744 10.7129 27.2718 10.7155 27.2637 10.7236C27.2264 10.7609 27.2634 10.7239 27.226 10.7614C27.1198 10.8676 27.1791 10.8083 27.0707 10.9167C27.0425 10.9448 27.0591 10.9282 27.0308 10.9565C27.0287 10.9586 27.0129 10.9744 27.0108 10.9765C27.0074 10.9799 27.0041 10.9832 27.0007 10.9866C26.9974 10.99 26.994 10.9933 26.9907 10.9967C26.985 11.0023 26.9559 11.0315 26.9501 11.0372C26.8956 11.0917 26.9638 11.0235 26.9092 11.0781C26.9058 11.0816 26.9024 11.085 26.8989 11.0884C26.8955 11.0918 26.8921 11.0953 26.8886 11.0987C26.8852 11.1022 26.8818 11.1056 26.8783 11.109C26.8749 11.1125 26.8714 11.1159 26.868 11.1194C26.7973 11.19 26.8972 11.0902 26.8264 11.1609C26.8229 11.1644 26.809 11.1783 26.8055 11.1818C26.789 11.1983 26.8011 11.1862 26.7846 11.2028C26.767 11.2204 26.7601 11.2272 26.7424 11.2449C26.6939 11.2934 26.7061 11.2812 26.6573 11.3301C26.6281 11.3592 26.6436 11.3438 26.6143 11.373C26.6108 11.3766 26.6072 11.3802 26.6036 11.3838C26.6 11.3874 26.5964 11.391 26.5928 11.3946C26.5892 11.3982 26.5856 11.4018 26.582 11.4054C26.5784 11.409 26.5748 11.4126 26.5711 11.4162C26.5675 11.4198 26.5639 11.4234 26.5603 11.427C26.5567 11.4306 26.5531 11.4343 26.5495 11.4379C26.5278 11.4596 26.5494 11.4379 26.5277 11.4596C26.5241 11.4632 26.5205 11.4669 26.5168 11.4705C26.5132 11.4741 26.5096 11.4778 26.5059 11.4814C26.4995 11.4878 26.4905 11.4968 26.4841 11.5032C26.4534 11.534 26.4929 11.4944 26.4622 11.5251C26.4508 11.5366 26.4517 11.5356 26.4403 11.5471C26.4366 11.5507 26.433 11.5544 26.4293 11.5581C26.4256 11.5617 26.422 11.5654 26.4183 11.5691C26.3941 11.5933 26.4205 11.5668 26.3963 11.5911C26.1128 11.8746 25.9666 12.0207 25.6773 12.31C25.6719 12.3154 25.5923 12.395 25.587 12.4004C25.5154 12.4719 25.5684 12.419 25.4969 12.4904C25.4739 12.5134 25.3404 12.6469 25.318 12.6693C25.222 12.7654 25.0597 12.9276 24.9678 13.0195C24.9305 13.0568 24.9837 13.0036 24.9464 13.0409C24.9251 13.0622 24.9463 13.041 24.9251 13.0623C24.8841 13.1033 24.9234 13.0639 24.8825 13.1048C24.822 13.1653 24.8585 13.1289 24.7983 13.189C24.7644 13.2229 24.8113 13.176 24.7774 13.2099C24.7608 13.2265 24.7733 13.2141 24.7566 13.2307C24.7532 13.2342 24.7497 13.2376 24.7463 13.2411C24.7428 13.2445 24.7394 13.248 24.7359 13.2514C24.7272 13.2602 24.724 13.2633 24.7153 13.2721C24.6878 13.2995 24.6606 13.3268 24.6336 13.3538C24.579 13.4084 24.6074 13.3799 24.5533 13.4341C24.483 13.5044 24.5443 13.443 24.4745 13.5128C24.4233 13.564 24.448 13.5393 24.3974 13.59C24.3618 13.6255 24.3949 13.5925 24.3594 13.6279C24.3469 13.6405 24.3344 13.653 24.322 13.6654C24.2895 13.6978 24.2066 13.7807 24.1768 13.8106C24.1684 13.8189 24.1675 13.8199 24.1592 13.8282C24.1492 13.8382 24.1517 13.8357 24.1417 13.8456C24.1388 13.8485 24.1359 13.8514 24.133 13.8543C24.1301 13.8572 24.1272 13.8601 24.1244 13.863C24.1215 13.8658 24.1186 13.8687 24.1158 13.8716C24.1129 13.8745 24.11 13.8773 24.1072 13.8802C24.1015 13.8859 24.0958 13.8916 24.0901 13.8972C24.0815 13.9059 24.0818 13.9056 24.0732 13.9142C24.0391 13.9482 24.0904 13.8969 24.0564 13.9309C24.0202 13.9672 24.0759 13.9114 24.0397 13.9476C23.99 13.9974 24.0565 13.9309 24.0069 13.9805C23.9891 13.9982 24.0084 13.979 23.9907 13.9967C23.9759 14.0114 23.9892 13.9981 23.9746 14.0128C23.9459 14.0415 23.9873 14 23.9587 14.0287C23.9501 14.0372 23.9514 14.036 23.9429 14.0445C23.9402 14.0472 23.9143 14.073 23.9118 14.0756C23.879 14.1083 23.823 14.1644 23.7937 14.1937C23.6924 14.295 23.6764 14.3109 23.5906 14.3968C23.5717 14.4157 23.5871 14.4002 23.5685 14.4188C23.5613 14.426 23.5542 14.4331 23.5473 14.4401C23.5428 14.4445 23.5413 14.446 23.5369 14.4504C23.5352 14.4521 23.5335 14.4538 23.5319 14.4555C23.5302 14.4572 23.5285 14.4589 23.5268 14.4605C23.4749 14.5124 23.5588 14.4285 23.5072 14.4802C23.4592 14.5282 23.4805 14.5068 23.4371 14.5503C23.367 14.6204 23.4464 14.541 23.3811 14.6062C23.3574 14.63 23.3587 14.6287 23.3401 14.6473C23.3078 14.6795 23.3641 14.6232 23.3322 14.6551C23.3228 14.6645 23.3345 14.6529 23.3254 14.6619C23.3222 14.6652 23.3167 14.6707 23.3148 14.6725C23.3099 14.6774 23.3156 14.6718 23.3111 14.6763C23.3087 14.6786 23.3104 14.677 23.3084 14.679C23.3053 14.682 23.3094 14.6779 23.3068 14.6806C23.3056 14.6817 23.3074 14.6799 23.3063 14.681C23.3063 14.681 23.3063 14.6811 23.3062 14.6811C23.3062 14.6811 23.3062 14.6811 24.1042 15.4791ZM34.5208 14.3506H24.1042V16.6076H34.5208V14.3506ZM4.77569 7.98131C4.96838 11.8959 6.30403 20.6245 13.8854 28.2124L15.482 26.6172C8.44283 19.572 7.20732 11.4747 7.02991 7.87035L4.77569 7.98131ZM13.8854 28.2124C21.4432 35.7769 30.6769 37.6691 34.8342 38.1458L35.0913 35.9036C31.1721 35.4542 22.5259 33.6674 15.482 26.6172L13.8854 28.2124ZM7.89918 7.05895H11.9861V4.802H7.89918V7.05895ZM12.9967 7.84818L14.2076 12.6958L16.3972 12.1489L15.1864 7.30124L12.9967 7.84818ZM13.8642 13.7482L9.05518 17.7592L10.5008 19.4924L15.3098 15.4814L13.8642 13.7482ZM38.2536 35.0103V31.0634H35.9966V35.0103H38.2536ZM35.7531 27.8628L30.7573 26.6171L30.2112 28.807L35.207 30.0527L35.7531 27.8628ZM27.6257 27.4863L22.6397 32.4766L24.2363 34.0718L29.2223 29.0815L27.6257 27.4863ZM30.7573 26.6171C29.6332 26.3368 28.4445 26.6667 27.6257 27.4863L29.2223 29.0815C29.4809 28.8227 29.8563 28.7185 30.2112 28.807L30.7573 26.6171ZM38.2536 31.0634C38.2536 29.5491 37.2224 28.2292 35.7531 27.8628L35.207 30.0527C35.671 30.1684 35.9966 30.5852 35.9966 31.0634H38.2536ZM14.2076 12.6958C14.3044 13.0835 14.171 13.4923 13.8642 13.7482L15.3098 15.4814C16.2813 14.6711 16.7038 13.3764 16.3972 12.1489L14.2076 12.6958ZM11.9861 7.05895C12.4642 7.05895 12.8809 7.38436 12.9967 7.84818L15.1864 7.30124C14.8195 5.83248 13.5 4.802 11.9861 4.802V7.05895ZM34.8342 38.1458C36.7605 38.3667 38.2536 36.8151 38.2536 35.0103H35.9966C35.9966 35.6027 35.5465 35.9558 35.0913 35.9036L34.8342 38.1458ZM7.02991 7.87035C7.00975 7.46077 7.33941 7.05895 7.89918 7.05895V4.802C6.2015 4.802 4.68487 6.13616 4.77569 7.98131L7.02991 7.87035Z" fill="white"/>
</svg>
