<svg width="24" height="24" viewBox="0 0 24 24" fill="none" xmlns="http://www.w3.org/2000/svg">
<path d="M2 2.00005L22.0002 21.9999M12.0001 17L12.0002 22M9.00006 8.99999L9.00007 10.76C8.99988 11.1321 8.89589 11.4967 8.6998 11.813C8.50372 12.1292 8.2233 12.3844 7.89009 12.55L6.1101 13.45C5.77689 13.6156 5.49647 13.8708 5.30038 14.1871C5.1043 14.5033 5.00031 14.8679 5.00011 15.24L5.00013 17L17.0001 16.9999M14.9997 9.34001L14.9997 6.00001L15.9997 6C16.5301 6 17.0388 5.78928 17.4139 5.4142C17.7889 5.03913 17.9997 4.53042 17.9996 3.99998C17.9996 3.46955 17.7889 2.96084 17.4138 2.58577C17.0388 2.2107 16.5301 2 15.9996 2L7.88963 2.00007" stroke="white" stroke-width="1.75" stroke-linecap="round" stroke-linejoin="round"/>
</svg>
